<svg width="450" height="900" viewBox="0 0 450 900" fill="none" xmlns="http://www.w3.org/2000/svg">
<path d="M145.448 134.501C127.063 139.663 113.18 154.394 109.303 172.777C106.676 185.62 108.302 195.189 111.679 186.753C115.556 177.562 131.315 169.377 142.071 171.014C148.7 172.147 155.954 175.673 162.707 181.087C171.087 188.012 180.717 188.642 189.222 182.724C197.852 176.932 201.479 167.866 198.977 158.297C194.725 140.922 166.835 128.583 145.448 134.501Z" fill="#D14C00"/>
<path d="M202.73 181.213C198.602 188.138 191.598 192.797 182.844 194.685C173.964 196.574 164.208 193.804 156.454 187.382C146.949 179.198 139.57 177.562 130.69 181.213C121.56 185.116 116.432 192.419 116.307 201.862C116.182 209.794 119.683 216.468 126.938 222.133C155.829 245.175 198.977 229.688 206.607 193.426C208.233 185.746 208.483 177.184 207.107 176.428C206.482 176.051 204.606 178.317 202.73 181.213Z" fill="#D14C00"/>
<path d="M162.126 200.816C162.478 200.816 162.79 200.952 163.062 201.224L165.606 203.984C164.198 205.728 162.462 207.064 160.398 207.992C158.35 208.92 155.886 209.384 153.006 209.384C150.43 209.384 148.11 208.944 146.046 208.064C143.998 207.184 142.246 205.96 140.79 204.392C139.334 202.824 138.214 200.952 137.43 198.776C136.662 196.6 136.278 194.224 136.278 191.648C136.278 189.04 136.694 186.656 137.526 184.496C138.358 182.32 139.526 180.448 141.03 178.88C142.55 177.312 144.358 176.096 146.454 175.232C148.55 174.352 150.87 173.912 153.414 173.912C155.942 173.912 158.182 174.328 160.134 175.16C162.102 175.992 163.774 177.08 165.15 178.424L162.99 181.424C162.862 181.616 162.694 181.784 162.486 181.928C162.294 182.072 162.022 182.144 161.67 182.144C161.43 182.144 161.182 182.08 160.926 181.952C160.67 181.808 160.39 181.64 160.086 181.448C159.782 181.24 159.43 181.016 159.03 180.776C158.63 180.536 158.166 180.32 157.638 180.128C157.11 179.92 156.494 179.752 155.79 179.624C155.102 179.48 154.302 179.408 153.39 179.408C151.838 179.408 150.414 179.688 149.118 180.248C147.838 180.792 146.734 181.592 145.806 182.648C144.878 183.688 144.158 184.968 143.646 186.488C143.134 187.992 142.878 189.712 142.878 191.648C142.878 193.6 143.15 195.336 143.694 196.856C144.254 198.376 145.006 199.656 145.95 200.696C146.894 201.736 148.006 202.536 149.286 203.096C150.566 203.64 151.942 203.912 153.414 203.912C154.294 203.912 155.086 203.864 155.79 203.768C156.51 203.672 157.166 203.52 157.758 203.312C158.366 203.104 158.934 202.84 159.462 202.52C160.006 202.184 160.542 201.776 161.07 201.296C161.23 201.152 161.398 201.04 161.574 200.96C161.75 200.864 161.934 200.816 162.126 200.816ZM193.932 176.672C193.932 177.408 193.724 178.08 193.308 178.688L175.5 203.84H193.524V209H167.124V206.456C167.124 206.136 167.18 205.832 167.292 205.544C167.404 205.24 167.548 204.96 167.724 204.704L185.58 179.432H168.252V174.296H193.932V176.672ZM233.549 179.6H223.085V209H216.629V179.6H206.165V174.296H233.549V179.6ZM247.253 193.856C247.253 193.088 247.141 192.368 246.917 191.696C246.709 191.008 246.389 190.408 245.957 189.896C245.525 189.384 244.973 188.984 244.301 188.696C243.645 188.392 242.877 188.24 241.997 188.24C240.285 188.24 238.933 188.728 237.941 189.704C236.965 190.68 236.341 192.064 236.069 193.856H247.253ZM235.949 197.432C236.045 198.696 236.269 199.792 236.621 200.72C236.973 201.632 237.437 202.392 238.013 203C238.589 203.592 239.269 204.04 240.053 204.344C240.853 204.632 241.733 204.776 242.693 204.776C243.653 204.776 244.477 204.664 245.165 204.44C245.869 204.216 246.477 203.968 246.989 203.696C247.517 203.424 247.973 203.176 248.357 202.952C248.757 202.728 249.141 202.616 249.509 202.616C250.005 202.616 250.373 202.8 250.613 203.168L252.317 205.328C251.661 206.096 250.925 206.744 250.109 207.272C249.293 207.784 248.437 208.2 247.541 208.52C246.661 208.824 245.757 209.04 244.829 209.168C243.917 209.296 243.029 209.36 242.165 209.36C240.453 209.36 238.861 209.08 237.389 208.52C235.917 207.944 234.637 207.104 233.549 206C232.461 204.88 231.605 203.504 230.981 201.872C230.357 200.224 230.045 198.32 230.045 196.16C230.045 194.48 230.317 192.904 230.861 191.432C231.405 189.944 232.181 188.656 233.189 187.568C234.213 186.464 235.453 185.592 236.909 184.952C238.381 184.312 240.037 183.992 241.877 183.992C243.429 183.992 244.861 184.24 246.173 184.736C247.485 185.232 248.613 185.96 249.557 186.92C250.501 187.864 251.237 189.032 251.765 190.424C252.309 191.8 252.581 193.376 252.581 195.152C252.581 196.048 252.485 196.656 252.293 196.976C252.101 197.28 251.733 197.432 251.189 197.432H235.949ZM262.574 187.4C263.07 186.904 263.59 186.448 264.134 186.032C264.694 185.6 265.278 185.24 265.886 184.952C266.51 184.648 267.174 184.416 267.878 184.256C268.582 184.08 269.35 183.992 270.182 183.992C271.526 183.992 272.718 184.224 273.758 184.688C274.798 185.136 275.662 185.776 276.35 186.608C277.054 187.424 277.582 188.408 277.934 189.56C278.302 190.696 278.486 191.952 278.486 193.328V209H272.558V193.328C272.558 191.824 272.214 190.664 271.526 189.848C270.838 189.016 269.79 188.6 268.382 188.6C267.358 188.6 266.398 188.832 265.502 189.296C264.606 189.76 263.758 190.392 262.958 191.192V209H257.03V184.376H260.654C261.422 184.376 261.926 184.736 262.166 185.456L262.574 187.4ZM289.667 187.4C290.163 186.904 290.683 186.448 291.227 186.032C291.787 185.6 292.371 185.24 292.979 184.952C293.603 184.648 294.267 184.416 294.971 184.256C295.675 184.08 296.443 183.992 297.275 183.992C298.619 183.992 299.811 184.224 300.851 184.688C301.891 185.136 302.755 185.776 303.443 186.608C304.147 187.424 304.675 188.408 305.027 189.56C305.395 190.696 305.579 191.952 305.579 193.328V209H299.651V193.328C299.651 191.824 299.307 190.664 298.619 189.848C297.931 189.016 296.883 188.6 295.475 188.6C294.451 188.6 293.491 188.832 292.595 189.296C291.699 189.76 290.851 190.392 290.051 191.192V209H284.123V184.376H287.747C288.515 184.376 289.019 184.736 289.259 185.456L289.667 187.4ZM317.361 184.376V209H311.409V184.376H317.361ZM318.177 177.2C318.177 177.712 318.073 178.192 317.865 178.64C317.657 179.088 317.377 179.48 317.025 179.816C316.689 180.152 316.289 180.424 315.825 180.632C315.361 180.824 314.865 180.92 314.337 180.92C313.825 180.92 313.337 180.824 312.873 180.632C312.425 180.424 312.033 180.152 311.697 179.816C311.361 179.48 311.089 179.088 310.881 178.64C310.689 178.192 310.593 177.712 310.593 177.2C310.593 176.672 310.689 176.176 310.881 175.712C311.089 175.248 311.361 174.848 311.697 174.512C312.033 174.176 312.425 173.912 312.873 173.72C313.337 173.512 313.825 173.408 314.337 173.408C314.865 173.408 315.361 173.512 315.825 173.72C316.289 173.912 316.689 174.176 317.025 174.512C317.377 174.848 317.657 175.248 317.865 175.712C318.073 176.176 318.177 176.672 318.177 177.2ZM338.429 189.176C338.269 189.432 338.101 189.616 337.925 189.728C337.749 189.824 337.525 189.872 337.253 189.872C336.965 189.872 336.653 189.792 336.317 189.632C335.997 189.472 335.621 189.296 335.189 189.104C334.757 188.896 334.261 188.712 333.701 188.552C333.157 188.392 332.509 188.312 331.757 188.312C330.589 188.312 329.669 188.56 328.997 189.056C328.341 189.552 328.013 190.2 328.013 191C328.013 191.528 328.181 191.976 328.517 192.344C328.869 192.696 329.325 193.008 329.885 193.28C330.461 193.552 331.109 193.8 331.829 194.024C332.549 194.232 333.277 194.464 334.013 194.72C334.765 194.976 335.501 195.272 336.221 195.608C336.941 195.928 337.581 196.344 338.141 196.856C338.717 197.352 339.173 197.952 339.509 198.656C339.861 199.36 340.037 200.208 340.037 201.2C340.037 202.384 339.821 203.48 339.389 204.488C338.973 205.48 338.349 206.344 337.517 207.08C336.685 207.8 335.653 208.368 334.421 208.784C333.205 209.184 331.797 209.384 330.197 209.384C329.349 209.384 328.517 209.304 327.701 209.144C326.901 209 326.125 208.792 325.373 208.52C324.637 208.248 323.949 207.928 323.309 207.56C322.685 207.192 322.133 206.792 321.653 206.36L323.021 204.104C323.197 203.832 323.405 203.624 323.645 203.48C323.885 203.336 324.189 203.264 324.557 203.264C324.925 203.264 325.269 203.368 325.589 203.576C325.925 203.784 326.309 204.008 326.741 204.248C327.173 204.488 327.677 204.712 328.253 204.92C328.845 205.128 329.589 205.232 330.485 205.232C331.189 205.232 331.789 205.152 332.285 204.992C332.797 204.816 333.213 204.592 333.533 204.32C333.869 204.048 334.109 203.736 334.253 203.384C334.413 203.016 334.493 202.64 334.493 202.256C334.493 201.68 334.317 201.208 333.965 200.84C333.629 200.472 333.173 200.152 332.597 199.88C332.037 199.608 331.389 199.368 330.653 199.16C329.933 198.936 329.189 198.696 328.421 198.44C327.669 198.184 326.925 197.888 326.189 197.552C325.469 197.2 324.821 196.76 324.245 196.232C323.685 195.704 323.229 195.056 322.877 194.288C322.541 193.52 322.373 192.592 322.373 191.504C322.373 190.496 322.573 189.536 322.973 188.624C323.373 187.712 323.957 186.92 324.725 186.248C325.509 185.56 326.477 185.016 327.629 184.616C328.797 184.2 330.141 183.992 331.661 183.992C333.357 183.992 334.901 184.272 336.293 184.832C337.685 185.392 338.845 186.128 339.773 187.04L338.429 189.176ZM186.961 238.608C186.769 238.944 186.561 239.192 186.337 239.352C186.129 239.496 185.865 239.568 185.545 239.568C185.209 239.568 184.841 239.448 184.441 239.208C184.057 238.952 183.593 238.672 183.049 238.368C182.505 238.064 181.865 237.792 181.129 237.552C180.409 237.296 179.553 237.168 178.561 237.168C177.665 237.168 176.881 237.28 176.209 237.504C175.537 237.712 174.969 238.008 174.505 238.392C174.057 238.776 173.721 239.24 173.497 239.784C173.273 240.312 173.161 240.896 173.161 241.536C173.161 242.352 173.385 243.032 173.833 243.576C174.297 244.12 174.905 244.584 175.657 244.968C176.409 245.352 177.265 245.696 178.225 246C179.185 246.304 180.169 246.632 181.177 246.984C182.185 247.32 183.169 247.72 184.129 248.184C185.089 248.632 185.945 249.208 186.697 249.912C187.449 250.6 188.049 251.448 188.497 252.456C188.961 253.464 189.193 254.688 189.193 256.128C189.193 257.696 188.921 259.168 188.377 260.544C187.849 261.904 187.065 263.096 186.025 264.12C185.001 265.128 183.745 265.928 182.257 266.52C180.769 267.096 179.065 267.384 177.145 267.384C176.041 267.384 174.953 267.272 173.881 267.048C172.809 266.84 171.777 266.536 170.785 266.136C169.809 265.736 168.889 265.256 168.025 264.696C167.161 264.136 166.393 263.512 165.721 262.824L167.617 259.728C167.777 259.504 167.985 259.32 168.241 259.176C168.497 259.016 168.769 258.936 169.057 258.936C169.457 258.936 169.889 259.104 170.353 259.44C170.817 259.76 171.369 260.12 172.009 260.52C172.649 260.92 173.393 261.288 174.241 261.624C175.105 261.944 176.137 262.104 177.337 262.104C179.177 262.104 180.601 261.672 181.609 260.808C182.617 259.928 183.121 258.672 183.121 257.04C183.121 256.128 182.889 255.384 182.425 254.808C181.977 254.232 181.377 253.752 180.625 253.368C179.873 252.968 179.017 252.632 178.057 252.36C177.097 252.088 176.121 251.792 175.129 251.472C174.137 251.152 173.161 250.768 172.201 250.32C171.241 249.872 170.385 249.288 169.633 248.568C168.881 247.848 168.273 246.952 167.809 245.88C167.361 244.792 167.137 243.456 167.137 241.872C167.137 240.608 167.385 239.376 167.881 238.176C168.393 236.976 169.129 235.912 170.089 234.984C171.049 234.056 172.233 233.312 173.641 232.752C175.049 232.192 176.665 231.912 178.489 231.912C180.537 231.912 182.425 232.232 184.153 232.872C185.881 233.512 187.353 234.408 188.569 235.56L186.961 238.608ZM201.019 267.384C198.875 267.384 197.227 266.784 196.075 265.584C194.939 264.368 194.371 262.696 194.371 260.568V246.816H191.851C191.531 246.816 191.259 246.712 191.035 246.504C190.811 246.296 190.699 245.984 190.699 245.568V243.216L194.659 242.568L195.907 235.848C195.987 235.528 196.139 235.28 196.363 235.104C196.587 234.928 196.875 234.84 197.227 234.84H200.299V242.592H206.875V246.816H200.299V260.16C200.299 260.928 200.483 261.528 200.851 261.96C201.235 262.392 201.755 262.608 202.411 262.608C202.779 262.608 203.083 262.568 203.323 262.488C203.579 262.392 203.795 262.296 203.971 262.2C204.163 262.104 204.331 262.016 204.475 261.936C204.619 261.84 204.763 261.792 204.907 261.792C205.083 261.792 205.227 261.84 205.339 261.936C205.451 262.016 205.571 262.144 205.699 262.32L207.475 265.2C206.611 265.92 205.619 266.464 204.499 266.832C203.379 267.2 202.219 267.384 201.019 267.384ZM216.262 246.648C217.03 245.176 217.942 244.024 218.998 243.192C220.054 242.344 221.302 241.92 222.742 241.92C223.878 241.92 224.79 242.168 225.478 242.664L225.094 247.104C225.014 247.392 224.894 247.6 224.734 247.728C224.59 247.84 224.39 247.896 224.134 247.896C223.894 247.896 223.534 247.856 223.054 247.776C222.59 247.696 222.134 247.656 221.686 247.656C221.03 247.656 220.446 247.752 219.934 247.944C219.422 248.136 218.958 248.416 218.542 248.784C218.142 249.136 217.782 249.568 217.462 250.08C217.158 250.592 216.87 251.176 216.598 251.832V267H210.67V242.376H214.15C214.758 242.376 215.182 242.488 215.422 242.712C215.662 242.92 215.822 243.304 215.902 243.864L216.262 246.648ZM234.72 242.376V267H228.768V242.376H234.72ZM235.536 235.2C235.536 235.712 235.432 236.192 235.224 236.64C235.016 237.088 234.736 237.48 234.384 237.816C234.048 238.152 233.648 238.424 233.184 238.632C232.72 238.824 232.224 238.92 231.696 238.92C231.184 238.92 230.696 238.824 230.232 238.632C229.784 238.424 229.392 238.152 229.056 237.816C228.72 237.48 228.448 237.088 228.24 236.64C228.048 236.192 227.952 235.712 227.952 235.2C227.952 234.672 228.048 234.176 228.24 233.712C228.448 233.248 228.72 232.848 229.056 232.512C229.392 232.176 229.784 231.912 230.232 231.72C230.696 231.512 231.184 231.408 231.696 231.408C232.224 231.408 232.72 231.512 233.184 231.72C233.648 231.912 234.048 232.176 234.384 232.512C234.736 232.848 235.016 233.248 235.224 233.712C235.432 234.176 235.536 234.672 235.536 235.2ZM246.308 245.4C246.804 244.904 247.324 244.448 247.868 244.032C248.428 243.6 249.012 243.24 249.62 242.952C250.244 242.648 250.908 242.416 251.612 242.256C252.316 242.08 253.084 241.992 253.916 241.992C255.26 241.992 256.452 242.224 257.492 242.688C258.532 243.136 259.396 243.776 260.084 244.608C260.788 245.424 261.316 246.408 261.668 247.56C262.036 248.696 262.22 249.952 262.22 251.328V267H256.292V251.328C256.292 249.824 255.948 248.664 255.26 247.848C254.572 247.016 253.524 246.6 252.116 246.6C251.092 246.6 250.132 246.832 249.236 247.296C248.34 247.76 247.492 248.392 246.692 249.192V267H240.764V242.376H244.388C245.156 242.376 245.66 242.736 245.9 243.456L246.308 245.4ZM276.858 254.088C277.594 254.088 278.234 253.992 278.778 253.8C279.322 253.592 279.77 253.312 280.122 252.96C280.49 252.608 280.762 252.184 280.938 251.688C281.13 251.192 281.226 250.648 281.226 250.056C281.226 248.84 280.858 247.88 280.122 247.176C279.402 246.456 278.314 246.096 276.858 246.096C275.402 246.096 274.306 246.456 273.57 247.176C272.85 247.88 272.49 248.84 272.49 250.056C272.49 250.632 272.578 251.168 272.754 251.664C272.946 252.16 273.218 252.592 273.57 252.96C273.938 253.312 274.394 253.592 274.938 253.8C275.498 253.992 276.138 254.088 276.858 254.088ZM283.554 268.104C283.554 267.624 283.41 267.232 283.122 266.928C282.834 266.624 282.442 266.392 281.946 266.232C281.45 266.056 280.866 265.928 280.194 265.848C279.538 265.768 278.834 265.712 278.082 265.68C277.346 265.632 276.578 265.592 275.778 265.56C274.994 265.528 274.226 265.464 273.474 265.368C272.818 265.736 272.282 266.168 271.866 266.664C271.466 267.16 271.266 267.736 271.266 268.392C271.266 268.824 271.37 269.224 271.578 269.592C271.802 269.976 272.146 270.304 272.61 270.576C273.09 270.848 273.706 271.056 274.458 271.2C275.21 271.36 276.13 271.44 277.218 271.44C278.322 271.44 279.274 271.352 280.074 271.176C280.874 271.016 281.53 270.784 282.042 270.48C282.57 270.192 282.954 269.84 283.194 269.424C283.434 269.024 283.554 268.584 283.554 268.104ZM289.458 243.216V245.424C289.458 246.128 289.034 246.56 288.186 246.72L285.978 247.128C286.314 247.976 286.482 248.904 286.482 249.912C286.482 251.128 286.234 252.232 285.738 253.224C285.258 254.2 284.586 255.032 283.722 255.72C282.858 256.408 281.834 256.944 280.65 257.328C279.482 257.696 278.218 257.88 276.858 257.88C276.378 257.88 275.914 257.856 275.466 257.808C275.018 257.76 274.578 257.696 274.146 257.616C273.378 258.08 272.994 258.6 272.994 259.176C272.994 259.672 273.218 260.04 273.666 260.28C274.13 260.504 274.738 260.664 275.49 260.76C276.242 260.856 277.098 260.92 278.058 260.952C279.018 260.968 280.002 261.016 281.01 261.096C282.018 261.176 283.002 261.32 283.962 261.528C284.922 261.72 285.778 262.032 286.53 262.464C287.282 262.896 287.882 263.488 288.33 264.24C288.794 264.976 289.026 265.928 289.026 267.096C289.026 268.184 288.754 269.24 288.21 270.264C287.682 271.288 286.906 272.2 285.882 273C284.874 273.8 283.626 274.44 282.138 274.92C280.666 275.416 278.986 275.664 277.098 275.664C275.242 275.664 273.626 275.48 272.25 275.112C270.874 274.76 269.73 274.28 268.818 273.672C267.906 273.08 267.226 272.392 266.778 271.608C266.33 270.824 266.106 270.008 266.106 269.16C266.106 268.008 266.45 267.048 267.138 266.28C267.842 265.496 268.802 264.872 270.018 264.408C269.362 264.072 268.842 263.624 268.458 263.064C268.074 262.504 267.882 261.768 267.882 260.856C267.882 260.488 267.946 260.112 268.074 259.728C268.218 259.328 268.418 258.936 268.674 258.552C268.946 258.168 269.282 257.808 269.682 257.472C270.082 257.12 270.554 256.808 271.098 256.536C269.85 255.864 268.866 254.968 268.146 253.848C267.442 252.728 267.09 251.416 267.09 249.912C267.09 248.696 267.33 247.6 267.81 246.624C268.306 245.632 268.986 244.792 269.85 244.104C270.73 243.4 271.762 242.864 272.946 242.496C274.146 242.128 275.45 241.944 276.858 241.944C277.914 241.944 278.906 242.056 279.834 242.28C280.762 242.488 281.61 242.8 282.378 243.216H289.458ZM308.241 247.176C308.081 247.432 307.913 247.616 307.737 247.728C307.561 247.824 307.337 247.872 307.065 247.872C306.777 247.872 306.465 247.792 306.129 247.632C305.809 247.472 305.433 247.296 305.001 247.104C304.569 246.896 304.073 246.712 303.513 246.552C302.969 246.392 302.321 246.312 301.569 246.312C300.401 246.312 299.481 246.56 298.809 247.056C298.153 247.552 297.825 248.2 297.825 249C297.825 249.528 297.993 249.976 298.329 250.344C298.681 250.696 299.137 251.008 299.697 251.28C300.273 251.552 300.921 251.8 301.641 252.024C302.361 252.232 303.089 252.464 303.825 252.72C304.577 252.976 305.313 253.272 306.033 253.608C306.753 253.928 307.393 254.344 307.953 254.856C308.529 255.352 308.985 255.952 309.321 256.656C309.673 257.36 309.849 258.208 309.849 259.2C309.849 260.384 309.633 261.48 309.201 262.488C308.785 263.48 308.161 264.344 307.329 265.08C306.497 265.8 305.465 266.368 304.233 266.784C303.017 267.184 301.609 267.384 300.009 267.384C299.161 267.384 298.329 267.304 297.513 267.144C296.713 267 295.937 266.792 295.185 266.52C294.449 266.248 293.761 265.928 293.121 265.56C292.497 265.192 291.945 264.792 291.465 264.36L292.833 262.104C293.009 261.832 293.217 261.624 293.457 261.48C293.697 261.336 294.001 261.264 294.369 261.264C294.737 261.264 295.081 261.368 295.401 261.576C295.737 261.784 296.121 262.008 296.553 262.248C296.985 262.488 297.489 262.712 298.065 262.92C298.657 263.128 299.401 263.232 300.297 263.232C301.001 263.232 301.601 263.152 302.097 262.992C302.609 262.816 303.025 262.592 303.345 262.32C303.681 262.048 303.921 261.736 304.065 261.384C304.225 261.016 304.305 260.64 304.305 260.256C304.305 259.68 304.129 259.208 303.777 258.84C303.441 258.472 302.985 258.152 302.409 257.88C301.849 257.608 301.201 257.368 300.465 257.16C299.745 256.936 299.001 256.696 298.233 256.44C297.481 256.184 296.737 255.888 296.001 255.552C295.281 255.2 294.633 254.76 294.057 254.232C293.497 253.704 293.041 253.056 292.689 252.288C292.353 251.52 292.185 250.592 292.185 249.504C292.185 248.496 292.385 247.536 292.785 246.624C293.185 245.712 293.769 244.92 294.537 244.248C295.321 243.56 296.289 243.016 297.441 242.616C298.609 242.2 299.953 241.992 301.473 241.992C303.169 241.992 304.713 242.272 306.105 242.832C307.497 243.392 308.657 244.128 309.585 245.04L308.241 247.176Z" fill="#4D1C00"/>
</svg>
