<?xml version="1.0" encoding="utf-8"?>
<!-- Generator: Adobe Illustrator 25.4.1, SVG Export Plug-In . SVG Version: 6.00 Build 0)  -->
<svg version="1.0" id="Layer_1" xmlns="http://www.w3.org/2000/svg" xmlns:xlink="http://www.w3.org/1999/xlink" x="0px" y="0px"
	 viewBox="0 0 1212 911.8" style="enable-background:new 0 0 1212 911.8;" xml:space="preserve">
<style type="text/css">
	.st0{fill:#05482F;}
	.st1{fill:#FFFFFF;}
	.st2{fill:#D35220;}
	.st3{fill:none;}
</style>
<g id="layer1">
	<g id="g3320">
		<g id="g62272">
			<path id="path62274" class="st0" d="M979.4,455.9c0,206.2-167.2,373.4-373.4,373.4S232.6,662.1,232.6,455.9S399.8,82.4,606,82.4
				S979.4,249.6,979.4,455.9"/>
		</g>
		<g id="g62276">
			<path id="path62278" class="st1" d="M606,807.2c-194,0-351.3-157.3-351.3-351.3S412,104.6,606,104.6s351.3,157.3,351.3,351.3l0,0
				C957.2,649.9,800,807.1,606,807.2 M606,96.4c-198.9,0-360.1,161.2-360.1,360.1S407.1,816.6,606,816.6s360.1-161.2,360.1-360.1
				v-0.6C965.9,257.1,804.8,96,606,95.9"/>
		</g>
		<g id="g62280">
			<path id="path62282" class="st1" d="M825.7,456.7c0,121.4-98.4,219.7-219.7,219.7s-219.7-98.4-219.7-219.7S484.6,237,606,237
				S825.7,335.4,825.7,456.7"/>
		</g>
		<g id="g62284">
			<path id="path62286" class="st1" d="M414.5,639.1l3-2c4.9,5.3,16.8,16.1,16.8,16.1c8.7,7.7,8.7,16.1,4,21.3
				c-6.3,6.9-17.1,7.4-24,1l-0.1-0.1c-0.4-0.3-0.7-0.6-1-1l-2.4-2.5l2.4-3.7c4,4,10.6,4.1,14.6,0c0,0,0,0,0,0l0,0l0.6-0.7
				c3-3.2,3.2-7.8-1.9-12l-2.8-2.5L395,684.8l-8-7.6l29.2-32.6L414.5,639.1z"/>
		</g>
		<g id="g62288">
			<path id="path62290" class="st1" d="M489.6,725.9l13.7,5.3v-13c0-2.9,0.3-5.8,0.7-8.7c-1.6,2.3-3.4,4.6-5.2,6.7L489.6,725.9z
				 M503.6,737.9l-18.1-7.2l-7.1,8.3l-7.4-3.4l35.3-38l7.9,3.1l2.5,47.1l3.7,3.6l-1.4,2.7l-14.9-4.8L503.6,737.9z"/>
		</g>
		<g id="g62292">
			<path id="path62294" class="st1" d="M592,720.9l0.8-3.5h22.9c8.3-0.9,15.7,5.1,16.6,13.4c-0.1,6.9-4.6,13.1-11.2,15.2l15.3,18.9
				l-14,1.1l-12-19.4v-3.4c5.8-0.9,9.9-6.1,9.5-12c0.1-4.4-3.4-8.2-7.8-8.3c0,0,0,0,0,0h-5v43h-11v-43.2L592,720.9z"/>
		</g>
		<g id="g62296">
			<path id="path62298" class="st1" d="M733.2,739.3l-10.2,4.3l-17.6-39.9h-4.8l-0.6-3.5c4.7-1.9,8.9-3.6,13.5-5.7L733.2,739.3z"/>
		</g>
		<g id="g62300">
			<path id="path62302" class="st1" d="M796.2,652.2l-7.1-2.8c-1.3,0.8-2.5,1.8-3.5,3c-2.4,2.9-3.8,6.9,0,9.6
				c8,6.8,21.4-10.6,33.7,0c5.8,6.2,5.5,15.8-0.6,21.7c-3.7,4.1-8.3,7.2-13.5,9.2l-3.7-6.5c5-1.1,9.5-3.7,12.9-7.5
				c2-2.4,3-5.4,0-7.7c-7.6-6.4-21.6,10-33.4,0c-6-6-6.1-15.8-0.1-21.8l0.1-0.1l1-1c2.8-3.2,6.1-5.8,9.9-7.7l6.9,8L796.2,652.2z"/>
		</g>
		<g id="g62304">
			<path id="path62306" class="st1" d="M297,531.1l-4.2-0.7c-2.7-11.9-4.8-24-6.3-36.1c-2.1-11.1,5.1-21.9,16.1-24.1
				c10.2-0.6,19.5,5.8,22.6,15.5l33.7-29.8c-0.2,6.6,0.1,13.3,0.7,19.9L327.9,500h-4.6c-1.2-8.5-8.8-14.6-17.4-14
				c-6.6,0.7-11.4,6.6-10.7,13.1c0,0,0,0.1,0,0.1l0,0c-0.1,0.7-0.1,1.3,0,2l1,8.2l66.2-8.2c0.5,4.7,1.5,9.3,3,13.7l-66.4,8.2
				L297,531.1z"/>
		</g>
		<g id="g62308">
			<path id="path62310" class="st1" d="M354.4,417.9c2.4-14.1-5.2-26.4-25.5-29.9c-13.8-4.2-28.4,3.5-32.8,17.2l-0.7,3.2
				c-2.4,14.3,5.1,26.1,24.8,29.5C339.9,441.4,351.8,432.6,354.4,417.9 M362.4,420.9c-2.6,20.2-21.1,34.5-41.2,31.9h-2.6
				c-20.7-3.2-34.9-22.6-31.7-43.3v-3c3.7-21.6,19.1-37.8,42.4-33.9c21.7,3.6,36.5,24,33,45.8c0.1,0.8,0.1,1.6,0,2.4"/>
		</g>
		<g id="g62312">
			<path id="path62314" class="st1" d="M314.5,339.3l-6.3,4.9l-3.4-3c2-5.2,5.1-13,7.7-18.5l60.2,29.4l2.3-4.8
				c4.4-9.8,3.7-21.1-2-30.2l4.1-3.5l14,20.2c-7.3,13.1-13.6,26.7-18.7,40.8l-4.5-0.7v-8.4L314.5,339.3z"/>
		</g>
		<g id="g62316">
			<path id="path62318" class="st1" d="M404.7,271.9l-30.5-11.1l14.9,29L404.7,271.9z M443.6,263.1l2.4,3.9
				c-5.1,4.3-9.9,8.8-15,13.9l-17.7-5.7l-20.5,22.9l9.4,18.1c-1.8,2.5-4.1,6.1-5.8,8.9l-37.7-75.2l6.4-7.2l71.3,24.1L443.6,263.1z"
				/>
		</g>
		<g id="g62320">
			<path id="path62322" class="st1" d="M469.6,163.8l36.1,65.9l-4.8,2.2l-67.2-22.1l29.1,44.3l-7.9,5.8L418.9,204l-8.1,0.7l-1.2-4.4
				l12-8.9l61.9,19.8L463.7,175l-8,0.6l-1.2-4.3c4.2-2.3,10.8-5.5,14.9-7.5"/>
		</g>
		<g id="g62324">
			<path id="path62326" class="st1" d="M545.8,207.5c14.9-3.9,23.9-19.2,20-34.1c-0.1-0.7-0.4-1.4-0.6-2.1
				c-3-14.5-16.9-24-31.4-21.5l-4.1,1.2l-12,3.6l16.1,56.3L545.8,207.5z M531.3,142.7c17.7-7.5,38.2,0.7,45.7,18.4c0,0,0,0,0,0l0,0
				c0.7,1.9,1.3,3.7,1.8,5.7c6.7,19.4-3.6,40.5-23,47.1l-0.2,0.1l-3.3,1c0,0-16.7,4.5-29.4,9l-19.3-65.3l-8.1-1.2v-4.6
				c13.9-4.7,28.7-8.9,36.1-10.8"/>
		</g>
		<g id="g62328">
			<path id="path62330" class="st1" d="M701,219.3c-11.2,1.5-22.5,0.7-33.4-2.3c-21.9-5.8-38.7-20.7-31.9-46.3s29.5-33.4,53.6-27
				c9.5,2.6,18.6,6.7,27,12l-7.6,18.1l-4.1-1.1l-1-10.6c-5.2-4.8-11.4-8.3-18.2-10.3c-14.2-4.6-29.4,3.2-34,17.4c0,0,0,0,0,0l0,0
				c-0.2,1.3-0.5,2.5-0.8,3.7c-4.9,14.9,3.1,31,18,35.9l0.6,0.2h1.8c5.9,1.4,12.1,1.4,18,0l3.8-14.3l-10.8-7.5l2.3-4.5l24.1,6.5
				L701,219.3z"/>
		</g>
		<g id="g62332">
			<path id="path62334" class="st1" d="M757.9,228.2l4.7-32l-25.3,19.6L757.9,228.2z M773.1,265.6l-3.6,3.6
				c-4.8-4-11.1-9.1-15.3-12.1l2.4-19.9l-26.3-15.9l-14.9,12l-9.6-4.4l65.7-50.1l7.8,4.7l-10.4,76L773.1,265.6z"/>
		</g>
		<g id="g62336">
			<path id="path62338" class="st1" d="M824.2,223.4l4.1-1.9c8.5,8.3,16.6,17.1,24.1,26.3c8.1,8.2,8.1,21.3,0,29.5
				c-8.1,6.3-19.4,6.3-27.5,0L813.7,321l-12-16.5l12-38l4.2-2c5.7,6.2,15.2,6.9,21.8,1.7c5.2-5.2,5.2-13.6,0-18.7c0,0,0,0,0,0v-0.1
				l-5.7-5.7l-48.2,43l-9.8-10.1l50.6-43.2L824.2,223.4z"/>
		</g>
		<g id="g62340">
			<path id="path62342" class="st1" d="M880.2,293l4.6-0.6c6.1,10.5,11.7,21.3,16.5,32.4c5.6,9.8,2.3,22.3-7.5,27.9h-0.8
				c-9.6,3.6-20.4,0.2-26.1-8.2l-22.9,39.3c-1.9-6.1-6.8-19.1-6.8-19.1l22.8-33.1l4.6-0.8c3.8,7.5,12.7,10.8,20.5,7.8
				c6.5-3.1,9.4-10.9,6.3-17.5v-0.7l-3.4-7.6l-61.2,28.1l-7.1-12l60.2-27.6L880.2,293z"/>
		</g>
		<g id="g62344">
			<path id="path62346" class="st1" d="M859,423.1c1.6,14.2,12,24.1,32.8,21.8c14.4,0.7,26.7-10.3,27.4-24.8c0,0,0,0,0,0
				c0-0.1,0-0.3,0-0.4v-4.1c-1.6-14.6-12-24.1-31.9-21.8s-28.9,14-27.5,28.8 M851.5,421.9c-3.4-19.7,9.8-38.4,29.5-41.8l1.1-0.2h2.9
				c20.8-2.5,39.7,12.2,42.3,33c0.1,1,0.1,2.1,0,3.1c2.3,21.8-8.1,41.7-31.6,44.2c-21.9,2.5-41.6-13.1-44.2-34.9c-0.1-1-0.1-2,0-3"
				/>
		</g>
		<g id="g62348">
			<path id="path62350" class="st1" d="M901.6,518.5l13.1-3.5c1-2.4,1.7-4.8,2.2-7.4c1.1-6.8,0-14-7.5-15.2c-12-2-22.7,32.2-42.2,29
				c-15.8-2.5-18.8-17-16.5-31.1c1.4-8.2,4.8-16,10-22.5l8.7,5.1c-5.8,5.4-9.6,12.6-10.7,20.5c-1,6,1.1,12,7.5,12.9
				c12,1.9,22.4-31.7,42.9-28.4c13.8,2.3,18.5,16.8,16.1,31.7c-1,6.1-3,12-6,17.5l-18.2-5L901.6,518.5z"/>
		</g>
		<g id="g62352">
			<path id="path62354" class="st2" d="M720.4,455.9h-14.6l-8.3-31.8c-10-4.6-20.8-7-31.8-7.2c-37.1,0-57.3,33.7-56.5,77.8
				L579,436.6c19-30.3,52.7-48,88.4-46.6c20.1,0.1,39.9,4.7,58.1,13.2L720.4,455.9z M734.2,289.5L607.3,390.4
				c4.8-17.1,1.1-35.4-10-49.3l96.4-76.3c-6.9-3.1-13.9-5.9-21-8.3l-90.3,72.3c-10.5-5.1-22.1-7.3-33.7-6.5h-30.1l95.5-75.9h-8
				c-116.4,0-210.8,94.4-210.8,210.8c0,45.6,14.8,90,42.2,126.5V527l77.9-62V348.7h17.2c24.1,0,34.3,14.8,34.3,26.9
				c0,17-12.8,30-38.2,33.9l-2.8,11.2l34.7,65.4l-123.2,97.9c13.1,17.3,28.7,32.4,46.4,45v-57l85.4-67.8H612
				c3.3,27.5,27.2,47.8,54.8,46.6c8.1,0.2,16.2-0.8,24.1-2.9v-36.1l-32.5-9.4l2.4-16.4h67.5v79.6c-21.7,8.4-44.7,13-67.9,13.6
				c-27.7,1.3-54.5-10.5-72.3-31.8l-103.7,81.6c94.6,67.9,226.3,46.2,294.2-48.4c66.7-93,47-222.2-44.3-291.2"/>
		</g>
	</g>
</g>
<rect x="206" y="55.9" class="st3" width="800" height="800"/>
</svg>
