<?xml version="1.0" encoding="UTF-8" standalone="no"?>
<!-- Created with Inkscape (http://www.inkscape.org/) -->

<svg
   version="1.1"
   id="svg2"
   width="816"
   height="1056"
   viewBox="0 0 816 1056"
   sodipodi:docname="us-open-seeklogo.com.eps"
   xmlns:inkscape="http://www.inkscape.org/namespaces/inkscape"
   xmlns:sodipodi="http://sodipodi.sourceforge.net/DTD/sodipodi-0.dtd"
   xmlns="http://www.w3.org/2000/svg"
   xmlns:svg="http://www.w3.org/2000/svg">
  <defs
     id="defs6" />
  <sodipodi:namedview
     id="namedview4"
     pagecolor="#ffffff"
     bordercolor="#000000"
     borderopacity="0.25"
     inkscape:showpageshadow="2"
     inkscape:pageopacity="0.0"
     inkscape:pagecheckerboard="0"
     inkscape:deskcolor="#d1d1d1" />
  <g
     id="g8"
     inkscape:groupmode="layer"
     inkscape:label="ink_ext_XXXXXX"
     transform="matrix(1.3333333,0,0,-1.3333333,0,1056)">
    <g
       id="g10"
       transform="scale(0.1)">
      <path
         d="m 2744.57,4079.39 c 439.24,-61.91 468.72,-106.12 576.32,-106.12 84.01,0 156.24,26.53 209.3,69.27 -166.56,44.22 -518.83,53.06 -785.62,36.85"
         style="fill:#ffd400;fill-opacity:1;fill-rule:evenodd;stroke:none"
         id="path12" />
      <path
         d="m 3599.46,4412.5 c -424.49,30.95 -832.78,-38.32 -1198.32,-191.61 446.61,-26.53 779.72,-64.86 1161.47,-145.93 45.69,53.07 73.7,119.4 73.7,194.56 -1.47,53.07 -13.26,103.18 -36.85,142.98"
         style="fill:#ffd400;fill-opacity:1;fill-rule:evenodd;stroke:none"
         id="path14" />
      <path
         d="m 3329.73,4564.32 c -225.51,0 -517.35,-84.02 -744.34,-168.03 309.53,60.43 694.23,73.69 986.07,54.53 -44.22,56.01 -113.5,113.5 -241.73,113.5"
         style="fill:#ffd400;fill-opacity:1;fill-rule:evenodd;stroke:none"
         id="path16" />
      <path
         d="m 2452.73,3551.71 c 19.16,-10.31 54.54,-20.63 85.49,-20.63 26.54,0 41.27,10.32 42.75,23.58 1.47,13.27 -7.37,23.59 -35.38,36.85 -35.37,14.74 -61.9,41.27 -56,75.17 7.36,57.49 69.27,97.28 150.34,97.28 36.84,0 57.48,-5.89 73.69,-11.79 l -19.16,-63.38 c -13.26,5.9 -38.32,14.74 -66.32,14.74 -25.06,0 -42.75,-10.32 -44.22,-25.06 -1.48,-11.79 10.31,-20.63 35.37,-32.42 32.43,-14.74 66.33,-38.33 60.43,-76.65 -7.36,-66.32 -73.69,-100.22 -156.23,-100.22 -41.27,0 -67.81,7.37 -88.44,17.68 l 17.68,64.85"
         style="fill:#00288c;fill-opacity:1;fill-rule:evenodd;stroke:none"
         id="path18" />
      <path
         d="m 2967.14,3762.49 c -81.07,0 -165.08,-66.33 -191.61,-147.4 -25.06,-81.06 14.74,-148.86 97.28,-148.86 91.38,0 169.51,67.8 196.03,148.86 26.54,82.54 -19.16,147.4 -101.7,147.4 z m 19.16,-116.44 c -5.89,-48.64 -38.32,-116.44 -85.48,-116.44 -29.48,0 -42.75,20.63 -38.33,56.01 4.42,44.22 36.85,113.49 85.49,113.49 32.43,1.47 39.8,-26.53 38.32,-53.06"
         style="fill:#00288c;fill-opacity:1;fill-rule:evenodd;stroke:none"
         id="path20" />
      <path
         d="m 3018.73,3357.15 88.44,290.37 c 10.31,32.43 23.58,81.07 30.95,110.55 h 75.17 l -11.79,-44.22 h 2.95 c 26.53,30.95 63.37,50.11 97.28,50.11 61.9,0 85.49,-50.11 79.59,-107.6 -11.79,-98.75 -88.43,-190.13 -187.19,-190.13 -23.58,0 -42.74,5.89 -51.59,11.79 h -1.47 l -36.85,-122.34 h -82.54 v 1.47 z m 141.5,187.19 c 7.37,-10.31 20.63,-13.26 36.85,-13.26 44.22,0 91.38,67.8 98.76,123.81 1.46,23.58 -4.43,45.69 -30.96,45.69 -30.95,0 -69.27,-41.27 -85.49,-94.33 l -19.16,-61.91"
         style="fill:#00288c;fill-opacity:1;fill-rule:evenodd;stroke:none"
         id="path22" />
      <path
         d="m 3597.99,3483.91 c -35.38,-13.26 -67.8,-17.68 -98.76,-17.68 -81.06,0 -117.91,45.69 -110.54,119.39 10.31,86.96 82.54,178.34 187.19,178.34 57.48,0 94.33,-32.42 88.44,-85.49 -7.37,-73.69 -82.55,-98.75 -196.04,-97.28 0,-7.37 0,-20.64 5.9,-29.48 10.32,-14.73 26.53,-23.58 51.59,-23.58 30.95,0 67.8,11.79 91.38,20.64 z m -39.8,219.62 c -38.31,0 -66.32,-32.42 -73.69,-57.48 66.32,0 98.75,10.31 103.17,35.37 0,11.79 -8.84,22.11 -29.48,22.11"
         style="fill:#00288c;fill-opacity:1;fill-rule:evenodd;stroke:none"
         id="path24" />
      <path
         d="m 3642.21,3472.12 57.48,191.61 c 11.79,36.85 19.17,67.81 25.06,92.86 h 75.17 l -11.79,-44.21 h 1.47 c 30.95,36.84 67.8,50.11 106.13,50.11 45.69,0 69.27,-29.48 63.38,-76.65 -1.48,-13.26 -5.9,-35.37 -10.32,-48.64 l -50.11,-165.07 -85.5,-0.01 c 0,0 38.33,123.81 48.64,159.19 11.8,41.27 13.27,67.8 -17.68,67.8 -29.48,0 -60.43,-30.95 -81.07,-97.28 -19.16,-63.38 -41.27,-131.18 -41.27,-131.18 h -82.54 v 1.47 h 2.95"
         style="fill:#00288c;fill-opacity:1;fill-rule:evenodd;stroke:none"
         id="path26" />
      <path
         d="m 2477.79,3756.59 -57.48,-191.61 c -11.79,-36.85 -19.17,-67.8 -25.06,-92.86 h -75.17 l 11.79,44.22 h -1.47 c -30.95,-36.85 -67.8,-50.11 -106.13,-50.11 -45.69,0 -69.27,29.48 -63.38,76.64 1.48,13.27 5.9,35.38 10.32,48.64 l 50.11,165.08 h 82.55 c 0,0 -38.32,-123.81 -48.65,-159.18 -11.79,-41.27 -13.26,-67.8 17.69,-67.8 29.48,0 60.43,30.94 81.07,97.28 20.63,66.32 41.27,131.18 41.27,131.18 h 85.49 v -1.48 h -2.95"
         style="fill:#00288c;fill-opacity:1;fill-rule:evenodd;stroke:none"
         id="path28" />
    </g>
  </g>
</svg>
